<?xml version="1.0" encoding="utf-8"?>
<!-- Generator: Adobe Illustrator 16.0.1, SVG Export Plug-In . SVG Version: 6.00 Build 0)  -->
<!DOCTYPE svg PUBLIC "-//W3C//DTD SVG 1.1//EN" "http://www.w3.org/Graphics/SVG/1.1/DTD/svg11.dtd" [
	<!ENTITY ns_extend "http://ns.adobe.com/Extensibility/1.0/">
	<!ENTITY ns_ai "http://ns.adobe.com/AdobeIllustrator/10.0/">
	<!ENTITY ns_graphs "http://ns.adobe.com/Graphs/1.0/">
	<!ENTITY ns_vars "http://ns.adobe.com/Variables/1.0/">
	<!ENTITY ns_imrep "http://ns.adobe.com/ImageReplacement/1.0/">
	<!ENTITY ns_sfw "http://ns.adobe.com/SaveForWeb/1.0/">
	<!ENTITY ns_custom "http://ns.adobe.com/GenericCustomNamespace/1.0/">
	<!ENTITY ns_adobe_xpath "http://ns.adobe.com/XPath/1.0/">
]>
<svg version="1.1" id="Layer_1" xmlns:x="&ns_extend;" xmlns:i="&ns_ai;" xmlns:graph="&ns_graphs;"
	 xmlns="http://www.w3.org/2000/svg" xmlns:xlink="http://www.w3.org/1999/xlink" x="0px" y="0px" width="260px" height="25px"
	 viewBox="0 0 260 25" enable-background="new 0 0 260 25" xml:space="preserve">
<metadata><?xpacket begin="﻿" id="W5M0MpCehiHzreSzNTczkc9d"?>
<x:xmpmeta xmlns:x="adobe:ns:meta/" x:xmptk="Adobe XMP Core 5.3-c011 66.145661, 2012/02/06-14:56:27        ">
   <rdf:RDF xmlns:rdf="http://www.w3.org/1999/02/22-rdf-syntax-ns#">
      <rdf:Description rdf:about=""
            xmlns:xmp="http://ns.adobe.com/xap/1.0/"
            xmlns:xmpGImg="http://ns.adobe.com/xap/1.0/g/img/">
         <xmp:CreatorTool>Adobe Illustrator CS6 (Macintosh)</xmp:CreatorTool>
         <xmp:CreateDate>2013-09-12T20:40:10-04:00</xmp:CreateDate>
         <xmp:MetadataDate>2013-09-12T20:40:10-04:00</xmp:MetadataDate>
         <xmp:ModifyDate>2013-09-12T20:40:10-04:00</xmp:ModifyDate>
         <xmp:Thumbnails>
            <rdf:Alt>
               <rdf:li rdf:parseType="Resource">
                  <xmpGImg:width>256</xmpGImg:width>
                  <xmpGImg:height>28</xmpGImg:height>
                  <xmpGImg:format>JPEG</xmpGImg:format>
                  <xmpGImg:image>/9j/4AAQSkZJRgABAgEASABIAAD/7QAsUGhvdG9zaG9wIDMuMAA4QklNA+0AAAAAABAASAAAAAEA&#xA;AQBIAAAAAQAB/+4ADkFkb2JlAGTAAAAAAf/bAIQABgQEBAUEBgUFBgkGBQYJCwgGBggLDAoKCwoK&#xA;DBAMDAwMDAwQDA4PEA8ODBMTFBQTExwbGxscHx8fHx8fHx8fHwEHBwcNDA0YEBAYGhURFRofHx8f&#xA;Hx8fHx8fHx8fHx8fHx8fHx8fHx8fHx8fHx8fHx8fHx8fHx8fHx8fHx8fHx8f/8AAEQgAHAEAAwER&#xA;AAIRAQMRAf/EAaIAAAAHAQEBAQEAAAAAAAAAAAQFAwIGAQAHCAkKCwEAAgIDAQEBAQEAAAAAAAAA&#xA;AQACAwQFBgcICQoLEAACAQMDAgQCBgcDBAIGAnMBAgMRBAAFIRIxQVEGE2EicYEUMpGhBxWxQiPB&#xA;UtHhMxZi8CRygvElQzRTkqKyY3PCNUQnk6OzNhdUZHTD0uIIJoMJChgZhJRFRqS0VtNVKBry4/PE&#xA;1OT0ZXWFlaW1xdXl9WZ2hpamtsbW5vY3R1dnd4eXp7fH1+f3OEhYaHiImKi4yNjo+Ck5SVlpeYmZ&#xA;qbnJ2en5KjpKWmp6ipqqusra6voRAAICAQIDBQUEBQYECAMDbQEAAhEDBCESMUEFURNhIgZxgZEy&#xA;obHwFMHR4SNCFVJicvEzJDRDghaSUyWiY7LCB3PSNeJEgxdUkwgJChgZJjZFGidkdFU38qOzwygp&#xA;0+PzhJSktMTU5PRldYWVpbXF1eX1RlZmdoaWprbG1ub2R1dnd4eXp7fH1+f3OEhYaHiImKi4yNjo&#xA;+DlJWWl5iZmpucnZ6fkqOkpaanqKmqq6ytrq+v/aAAwDAQACEQMRAD8AmX5yedhqOvRaDZyVstOc&#xA;/WSDs9yQVI/55g0+dchIvXdh6Pgj4kvqly937Xm2pakIAYojWY9T/L/bkXoJSQmnaoyN6U7EoTs5&#xA;6gnx9sWMZMp8t+a7jy15is9Shq8K1S7iX/dkDkcl+e1R7gYQXF7Q0wz4zA/D3vp2zu7a8tIbu2kE&#xA;tvcIskMi9GRhUEfRlj5/OBiSDzCnqep2Ol6dc6jfzCCytI2muJm6KiCpO25+QxYvJdO/Mb82vOzS&#xA;3vkfRLKx8vo7JBqGrM5ecoaVVUYU96KwB25YqitN/NrzVoPmSz8u/mTpUGnNqDcNP1qyZjaSNUL8&#xA;QYvTdhyNRxruoG+KvWcVdirsVdirsVeT/nD+Yf5j+S7u2udKs9MutGvZI7W1E6XEl0bhlLEFY5I1&#xA;4/DtirMvy384p5w8m6frlES4nUpewx14pcRnjIoBLEAkclqehGKvN/zC/PDzXpfnw+WvK9nYXMEU&#xA;ttYz3V4kzgXt1UqnKKWMKoG3QmobFXr3l5tfbRrZvMCWyawVP1tLLn9XDcjx9P1CWpxp1PXFUwxV&#xA;2KuxVj3nrzrp/k/Qv0rexPOHmjtreCOgLyy14gsdlXYknFUj/NvzT568r6Mdb8vQadPp1nGX1IXw&#xA;maUFnRI/RETxg/aNanFWW+XtQm1LQNM1GdVWe9tILiVUBCB5Y1dgoJJpU7b4qmGKsC/NvzT568r6&#xA;Mdb8vQadPp1nGX1IXwmaUFnRI/RETxg/aNanFWOaZ5v/AD+v/L1t5httJ0C7sbm3W6jtYjcpctGy&#xA;8gAHl48qdq4qzj8tvPVt538qwa5DAbWQu8FzbE8gksdOQVqDkCCCNu+KsoxVAa9NrMGjXkui28V3&#xA;qyRMbK2nf043kp8IZv7RXxHXFWI/mL5m/MLy/wCUINd0u00z17SAza7BdNNKqHivw25jaLlRy32s&#xA;VZH5J1u613yjo+s3aRpdahaRXEyRAiMNIoYhQxY0+ZOKp1ir52/NT8stW8vTTazpJa60WRi81VVp&#xA;bZmNfjJBZk8H+/xMCHtOye04ZgIT2yfYf2+XyeQzXFysh5PUnepA3r9GRdtMEFYLm4JoG3+Q/pix&#xA;Zr5D8n+ZPNl+llZUW2hp9bvZEBjhQn3G7fyqOvy3xAtq1urx6eFz3l0He+o/LuhWug6Na6Vau8kN&#xA;svEPIasxJ5MdthUnoNstDweoznLMzPMsD/5yOkuk/KrUBDUI89stxT/ffrKd/wDZhcWhl/5fxWEX&#xA;kby+lhT6mNPtjCR3DRKST7kmp98VYD/zk/FYt+W6SThfrEd9D9UY/a5srhgPmla4qxv879L1CDyh&#xA;5Z80x6heW2vXTafYXEazMsALW8srMYx+36i7muKtfmh5J1fyR5ctvOdt5n1O98zW13D9auZpj6Eg&#xA;kryVYR9lKgfCWI47YqyT89/Pmo6RdaH5asdQfR49YcvqWrxI8k0NsrKp9JYwz8jUn4d9gO5xVgGu&#xA;a1+Xeh2n6R8hectVfzXaOjra3QvZEvKEB0mSSBErxFd9tqfJV9GeXNXGs+X9N1b0zCb+2huGhNao&#xA;ZUDFDX+UmmKvO/z5/wCmK/8AAis/44qx7Qtftvys84+dtBvKR6PJA+vaHETxVmIoYI/9Y/ux/qYq&#xA;xqTy9dWHk7yZrepVbWfM/mm21S+lb7RWYsYh8uJ5/wCyOKvRfzZ1vzJf+cPLn5faFfPpTa2JLjUN&#xA;QhPGYW8YYlY2BBHwxOTQ77DpWqqReefy91D8utAfzd5Q8wakLrTXje+tL6f14bmJ3WNuSUQE1YE1&#xA;7dKGmKqH52QfpDyfoXn7Try8sdS1QafHHbpORbpHcRtMKxqN2BYAnFUP+aPkjVvJPlu385W/mfVL&#xA;3zPbXUIubmaY+hJ6hPJVhH2UqB8PIim2Kpr/AM5L+XrSfQNN12aeeK5S6t7NoFlpbhH9R2crT7YP&#xA;RvDFU6/MryxZeWvyR1/S7O4ubmFVWQS3kvrS1e4jJHOi7eGKsS138tvqP5TL5sHmDVZdftdPtry2&#xA;nNyyRRLxQiGOJacUVDQb+/tir2fyVqF1qXk7QdRu39S7vdOtLi4elOUksCO5oPFjirHfz0/8lR5h&#xA;/wCMMX/URHirySXzX+b3lr8ufLTm70208tapDBZ2+pQRyyXFpFIg4PNzAUNwqaqD0+WKvWdB8laf&#xA;5L/LKfR7bXTYII3nufMJCDg8tOcqKxKqOICrv9NcVeL+Z738ttN8uvqPlrztrF15wtihhvHa8CXM&#xA;iuPUUs8ax8aMxHx/S3dV6T+Y1q/mL8mbHzTc3dza6na6VDqKfVJTCjTXMMTP6gUfEteg2xVE+YpJ&#xA;Jf8AnHBZZWLyP5es2d2JLMxgiJJJ6k4qk+u3Xmq2/wCcePL8nlwzrL9VshqElnX6wln6Z9VoivxA&#xA;8uNSOi1xVhcMX5d6xdaNH5L833un6p9bga7sdbuLiOOdAd/jSN4/WLUAHKhqcVfTzojoyOoZGBDK&#xA;RUEHqCMVBp4D+bn5JPapNrnliEvaLWS601BVogNy8Q6lPFf2e23SBi9X2b2x4gGPKfV0l3+RYT+V&#xA;/wCV+q+cb0zHla6NA3G5viP2qV4RA/af8F79gQBbn63tGGmjfOZ5D9JfUuhaDpWhaZFpulwLb2kP&#xA;RRuWY9WZjuzHuTlgDxefUTyzM5myUwxaUBr+h6dr2jXmj6jH6llfRNFMo2ND0ZTvRlO6nxxV5Loe&#xA;gfnd+X0TaNoVrZ+avLyOzWAmmW3nhViTxPqPEBuakDkPCmKr0/Lj8wfPfmKy1b8xmtrHRdOYSW3l&#xA;2zf1A7A1/esC6/FQcjzJI2HHFUX+eHlr8xPNQstI0PSYLjSrS4h1AXj3EcchnjWVDEUdh8NJK1xV&#xA;R/NDRfzU84+RtP0ldCtYr25dptURbqOkDQykQqjM1HEkfxHwxVGebfI/nbzdpOieYTHb6F570Kd5&#xA;raASerbunMERtIvPqEBHbcg9ahV02sf85CanCmnwaBp2gzsQJtZkuY7iMUO7RQBpWFfBlbFXp9lH&#xA;dR2kMd3MLi6RFWedU9MO4HxMEq3EE9q4q8r/ADg0H8ydf1fSodD0e3udM0e8g1KG6e5SN5Jogaxs&#xA;jMKLv1xVd+ZX5W6p5+tfKl9e28dlqttLHHrkKSAhLWWjThHr8ZjZfg/1jiq383fLX5gazf6HaeXN&#xA;Gtp9J0S4t9Qgma4jhYyw8h6PBmWiBabjFVbzh5H86+Yrby/5uskt9I8+6KWY2Zf1LeSMuf3JkFf2&#xA;fo+Ig06hVKte0T87PzAtIvL2vadZeWtCeRH1O5hmWeSZY2DcY1SSXbkAwVqb0qcVRn5veT/O+q6T&#xA;pXlbyro8E2g6ctrNHcvcJFIsltzjWHg7LVRHxNcVUfzN0b82POXkiy0j9A2sN3cStNqKJdR0hMMn&#xA;7kIWajc1NT4Yqj/zA8q+fPPn5YtY31hb6d5iiu1uEsUnDxOkfJQBLUqGZXJ3xVDedrX85PMnkIaJ&#xA;NoFkL7UVaPUmjukURCKSNo2Tk5B9TixIrtirtW0r81dQ/KX/AA02g2qam4TTWjF1GQLKKBAtxyLc&#xA;eZkUjjXFWW/ldD5xs/LFtpXmXTYdPk0uC3s7MwzLN6sUMQj5vxLBT8PTFUt/ObTPPOt+XZPL/lzT&#xA;IL211KMrfXEs6QvCUkR04ByoblxNcVQXlfyb5l1j8tbnyV5z0yHT4ILWG00+eGZZ2YxqeMzcSQrI&#xA;6qad8VY/B5I/NnWfy0vPImu21rbJa28a6ZqX1gSGZredHjhkVCxC+mvENTsK4qreYLD84/MfkWXy&#xA;mvlOx0aEW8cMs7X0UglEJUqttFFtFUoP7xqAYq3f6R+b91+VkPlH/D1oJhbppkji7jqLaCGJY5q8&#xA;uPJmVqriq3UNJ/OO6/LG38njy5Zhvqo02aX65HyWC3ihSKUfFxLOQ9R2piq9tB/OhPyy0fRdNtk0&#xA;rXNIvbeJDBdoBNYw27qzSsGpQylapiqB83eTvzN/MBLXS9W8qaZoIS4WW68wLPFPKVFQ/orGTKA3&#xA;Xi3XapHXFXuuKuxVDab+jPqafoz0PqVX9P6tw9LlzPOnD4a868veuLPJxX6rvzROLB2KuxV2KuxV&#xA;2KuxV2KuxV2KuxV2KuxV2KuxV2KuxV2KuxV2KuxV2KuxV2KuxV2KuxV2KuxV/9k=</xmpGImg:image>
               </rdf:li>
            </rdf:Alt>
         </xmp:Thumbnails>
      </rdf:Description>
      <rdf:Description rdf:about=""
            xmlns:xmpTPg="http://ns.adobe.com/xap/1.0/t/pg/"
            xmlns:stDim="http://ns.adobe.com/xap/1.0/sType/Dimensions#"
            xmlns:xmpG="http://ns.adobe.com/xap/1.0/g/">
         <xmpTPg:MaxPageSize rdf:parseType="Resource">
            <stDim:w>260.000000</stDim:w>
            <stDim:h>25.000000</stDim:h>
            <stDim:unit>Points</stDim:unit>
         </xmpTPg:MaxPageSize>
         <xmpTPg:NPages>1</xmpTPg:NPages>
         <xmpTPg:HasVisibleTransparency>False</xmpTPg:HasVisibleTransparency>
         <xmpTPg:HasVisibleOverprint>False</xmpTPg:HasVisibleOverprint>
         <xmpTPg:PlateNames>
            <rdf:Seq>
               <rdf:li>Cyan</rdf:li>
               <rdf:li>Magenta</rdf:li>
               <rdf:li>Yellow</rdf:li>
               <rdf:li>Black</rdf:li>
            </rdf:Seq>
         </xmpTPg:PlateNames>
         <xmpTPg:SwatchGroups>
            <rdf:Seq>
               <rdf:li rdf:parseType="Resource">
                  <xmpG:groupName>Default Swatch Group</xmpG:groupName>
                  <xmpG:groupType>0</xmpG:groupType>
               </rdf:li>
            </rdf:Seq>
         </xmpTPg:SwatchGroups>
      </rdf:Description>
      <rdf:Description rdf:about=""
            xmlns:dc="http://purl.org/dc/elements/1.1/">
         <dc:format>image/svg+xml</dc:format>
      </rdf:Description>
      <rdf:Description rdf:about=""
            xmlns:xmpMM="http://ns.adobe.com/xap/1.0/mm/"
            xmlns:stEvt="http://ns.adobe.com/xap/1.0/sType/ResourceEvent#">
         <xmpMM:DocumentID>xmp.did:0380117407206811822AA348D29B82AC</xmpMM:DocumentID>
         <xmpMM:InstanceID>xmp.iid:0380117407206811822AA348D29B82AC</xmpMM:InstanceID>
         <xmpMM:OriginalDocumentID>xmp.did:0380117407206811822AA348D29B82AC</xmpMM:OriginalDocumentID>
         <xmpMM:History>
            <rdf:Seq>
               <rdf:li rdf:parseType="Resource">
                  <stEvt:action>saved</stEvt:action>
                  <stEvt:instanceID>xmp.iid:0380117407206811822AA348D29B82AC</stEvt:instanceID>
                  <stEvt:when>2013-09-12T20:40:10-04:00</stEvt:when>
                  <stEvt:softwareAgent>Adobe Illustrator CS6 (Macintosh)</stEvt:softwareAgent>
                  <stEvt:changed>/</stEvt:changed>
               </rdf:li>
            </rdf:Seq>
         </xmpMM:History>
      </rdf:Description>
   </rdf:RDF>
</x:xmpmeta>
                                                                                                    
                                                                                                    
                                                                                                    
                                                                                                    
                                                                                                    
                                                                                                    
                                                                                                    
                                                                                                    
                                                                                                    
                                                                                                    
                                                                                                    
                                                                                                    
                                                                                                    
                                                                                                    
                                                                                                    
                                                                                                    
                                                                                                    
                                                                                                    
                                                                                                    
                                                                                                    
                           
<?xpacket end="w"?>
	</metadata>
<g>
	<polygon fill="#C2214D" points="17.312,25 34.526,9.616 0,9.616 	"/>
	<polygon fill="#A41D41" points="17.272,25 26.853,9.616 7.688,9.616 	"/>
	<polygon fill="#C2385E" points="5.78,0 0,9.616 34.526,9.616 28.771,0 	"/>
	<polygon fill="#B52950" points="17.31,0 7.688,9.616 26.931,9.616 	"/>
	<polygon fill="#DE4771" points="26.853,9.616 28.771,0 17.31,0 	"/>
	<polygon fill="#DE4771" points="7.674,9.616 5.756,0 17.263,0 	"/>
	<path fill="#333333" d="M46.063,12.504c0,5.35,3.609,9.571,9.571,9.571c5.962,0,9.604-4.238,9.604-9.571
		c0-5.35-3.642-9.604-9.604-9.604C49.689,2.9,46.063,7.122,46.063,12.504L46.063,12.504z M48.916,12.504
		c0-4.141,2.659-7.428,6.719-7.428c4.093,0,6.735,3.287,6.735,7.428c0,4.076-2.643,7.363-6.735,7.363
		C51.574,19.867,48.916,16.58,48.916,12.504L48.916,12.504z M67.631,21.77h7.074v-1.967h-2.336v-6.896
		c1.144-1.305,2.481-2.271,3.948-2.271c1.531,0,2.014,1.063,2.014,2.966v6.234h-1.772v1.934h6.478V19.82l-2.336-0.031
		c0,0,0.048-6.832,0.048-7.074c0-2.545-1.45-4.141-3.819-4.141c-1.595,0-2.9,0.612-4.56,1.901c-0.032-0.274-0.064-1.676-0.064-1.676
		h-4.77v1.934h2.401v9.056h-2.304v1.98H67.631z M98.028,15.889c0-0.098,0-0.193,0-0.274c0-3.754-2.175-7.041-6.445-7.041
		c-4.061,0-7.138,2.788-7.138,6.719c0,3.755,2.739,6.784,7.203,6.784c2.852,0,5.14-1.062,6.381-2.9l-2.062-0.902
		c-0.983,1.177-2.578,1.789-4.254,1.789c-2.771,0-4.286-1.677-4.625-4.174l5.511,0.032L98.028,15.889L98.028,15.889z M87.152,14.244
		c0.371-2.191,1.869-3.819,4.463-3.819c2.353,0,3.754,1.772,4.093,3.819h-4.222H87.152L87.152,14.244z M109.967,19.723h-2.384v2.047
		h6.687v-2.03h-2.143V5.301l3.319,8.299l3.319,8.33h0.677l3.319-8.33l3.368-8.314v14.438h-2.143v2.047h6.896v-2.015h-2.368v-7.283
		V5.237h2.368V3.19h-6.284l-5.446,13.471l-2.659-6.751l-2.707-6.719h-6.203v1.998h2.384v7.283V19.723L109.967,19.723z
		 M139.479,19.867c-2.627,0-4.285-1.949-4.285-4.576c0-2.626,1.658-4.656,4.285-4.656c2.658,0,4.318,2.03,4.318,4.656
		C143.797,17.918,142.137,19.867,139.479,19.867L139.479,19.867z M139.479,22.075c4.205,0,6.896-3.062,6.896-6.784
		c0-3.722-2.675-6.719-6.863-6.719c-4.223,0-6.882,2.997-6.882,6.719C132.63,19.014,135.289,22.075,139.479,22.075L139.479,22.075z
		 M148.479,21.77h7.072v-1.967h-2.336v-6.896c1.145-1.305,2.48-2.271,3.948-2.271c1.53,0,2.014,1.063,2.014,2.966v6.234h-1.772
		v1.934h6.479V19.82l-2.337-0.031c0,0,0.05-6.832,0.05-7.074c0-2.545-1.451-4.141-3.818-4.141c-1.596,0-2.9,0.612-4.562,1.901
		c-0.032-0.274-0.063-1.676-0.063-1.676h-4.771v1.934h2.401v9.056h-2.305V21.77L148.479,21.77z M164.969,10.764h1.998v3.561
		c0,0.629,0.081,4.528,0.081,4.528c0.08,2.287,1.386,3.094,3.239,3.094c0.547,0,1.176-0.113,1.74-0.258v-2.047
		c-0.451,0.146-0.887,0.226-1.258,0.226c-0.758,0-1.258-0.306-1.306-1.192c-0.063-0.226-0.063-3.818-0.063-4.479v-3.432h2.627V8.798
		H169.4V4.125l-2.385,1.966v2.707h-2.048L164.969,10.764L164.969,10.764z M173.581,21.77h7.187v-1.967h-2.336v-7.879
		c1.272-0.935,2.725-1.466,3.885-1.466c1.676,0,2.095,1.321,2.095,2.803v6.56h-1.646v1.949h6.351V19.82l-2.321-0.032
		c0,0,0.016-6.769,0.016-6.978c0-2.771-1.399-4.237-3.963-4.237c-1.562,0-2.998,0.483-4.414,1.499c0-0.483,0.017-6.88,0.017-6.88
		h-4.834v1.95h2.417v7.332v7.315h-2.45v1.98H173.581z M197.814,21.77h7.719v-2.03l-2.514-0.017c0,0,0-6.188,0-6.623h3.109
		l4.561,8.67h4.076v-2.015h-2.353l-3.771-6.978c2.756-0.563,4.174-2.289,4.174-4.785c0-2.868-1.869-4.802-6.123-4.802
		c-0.483,0-8.879,0-8.879,0v1.998h2.627v7.283v7.251h-2.627V21.77L197.814,21.77z M203.02,11.021V5.237c0,0,3.238-0.016,3.804-0.016
		c2.03,0,3.336,0.951,3.336,2.771c0,1.499-0.741,3.029-3.546,3.029H203.02L203.02,11.021z M220.333,22.123
		c1.61,0,2.836-0.451,4.544-1.691c0.016,0,0.032,1.338,0.032,1.338h4.464V19.82h-2.321v-6.979c0-2.207-1.176-4.27-5.235-4.27
		c-2.658,0-4.576,0.935-5.561,2.626l2.256,0.628c0.613-0.886,1.66-1.354,2.981-1.354c1.708,0,3.157,0.677,3.157,2.481v1.562
		c-1.047-0.209-2.109-0.322-3.108-0.322c-3.062,0-5.592,0.887-5.592,4.093C215.95,20.271,217.609,22.123,220.333,22.123
		L220.333,22.123z M224.65,18.9c-0.981,0.887-2.562,1.435-3.979,1.435c-1.58,0-2.449-0.919-2.449-2.047
		c0-2.11,1.789-2.449,3.48-2.449c1.16,0,2.256,0.242,2.947,0.259V18.9L224.65,18.9z M230.669,21.77h6.769v-1.967h-2.19V8.798h-4.577
		v1.934h2.176v9.04h-2.176L230.669,21.77L230.669,21.77z M232.555,4.592c0,0.79,0.646,1.402,1.467,1.402s1.481-0.612,1.481-1.402
		s-0.66-1.402-1.481-1.402C233.199,3.19,232.555,3.803,232.555,4.592L232.555,4.592z M238.589,21.77h6.993v-1.967h-2.143V3.19
		h-4.803v1.95h2.4v7.284v7.363h-2.449L238.589,21.77L238.589,21.77z M247.668,21.77h2.111l0.031-0.646
		c0.967,0.661,2.11,0.951,3.594,0.951c3.143,0,5.141-1.611,5.141-3.979c0-2.627-2.014-3.496-4.398-3.9
		c-2.271-0.369-4.237-0.53-4.237-1.964c0-1.096,1.03-1.773,2.608-1.773c1.402,0,2.45,0.467,3.207,1.386
		c0,0.177,0.049,1.08,0.049,1.08h2.031V8.798h-2.031c0,0-0.063,0.467-0.08,0.451c-0.838-0.403-2.014-0.677-3.271-0.677
		c-2.901,0-4.786,1.611-4.786,3.754c0,3.094,3.256,3.803,5.575,4.109c1.708,0.226,2.868,0.498,2.868,1.836
		c0,1.192-1.096,1.886-2.948,1.886c-1.997,0-3.399-0.918-3.399-2.417c0-0.08,0-0.145,0.017-0.209h-2.079v4.238H247.668z"/>
</g>
</svg>
