<?xml version="1.0" encoding="utf-8"?>
<!-- Generator: Adobe Illustrator 16.0.1, SVG Export Plug-In . SVG Version: 6.00 Build 0)  -->
<!DOCTYPE svg PUBLIC "-//W3C//DTD SVG 1.1//EN" "http://www.w3.org/Graphics/SVG/1.1/DTD/svg11.dtd" [
	<!ENTITY ns_flows "http://ns.adobe.com/Flows/1.0/">
	<!ENTITY ns_extend "http://ns.adobe.com/Extensibility/1.0/">
	<!ENTITY ns_ai "http://ns.adobe.com/AdobeIllustrator/10.0/">
	<!ENTITY ns_graphs "http://ns.adobe.com/Graphs/1.0/">
	<!ENTITY ns_vars "http://ns.adobe.com/Variables/1.0/">
	<!ENTITY ns_imrep "http://ns.adobe.com/ImageReplacement/1.0/">
	<!ENTITY ns_sfw "http://ns.adobe.com/SaveForWeb/1.0/">
	<!ENTITY ns_custom "http://ns.adobe.com/GenericCustomNamespace/1.0/">
	<!ENTITY ns_adobe_xpath "http://ns.adobe.com/XPath/1.0/">
]>
<svg version="1.1" id="Layer_1" xmlns:x="&ns_extend;" xmlns:i="&ns_ai;" xmlns:graph="&ns_graphs;"
	 xmlns="http://www.w3.org/2000/svg" xmlns:xlink="http://www.w3.org/1999/xlink" xmlns:a="http://ns.adobe.com/AdobeSVGViewerExtensions/3.0/"
	 x="0px" y="0px" width="260px" height="25px" viewBox="0 0 260 25" enable-background="new 0 0 260 25" xml:space="preserve">
<metadata><?xpacket begin="﻿" id="W5M0MpCehiHzreSzNTczkc9d"?>
<x:xmpmeta xmlns:x="adobe:ns:meta/" x:xmptk="Adobe XMP Core 5.3-c011 66.145661, 2012/02/06-14:56:27        ">
   <rdf:RDF xmlns:rdf="http://www.w3.org/1999/02/22-rdf-syntax-ns#">
      <rdf:Description rdf:about=""
            xmlns:xmp="http://ns.adobe.com/xap/1.0/"
            xmlns:xmpGImg="http://ns.adobe.com/xap/1.0/g/img/">
         <xmp:CreatorTool>Adobe Illustrator CS6 (Macintosh)</xmp:CreatorTool>
         <xmp:CreateDate>2013-09-12T20:40:10-04:00</xmp:CreateDate>
         <xmp:Thumbnails>
            <rdf:Alt>
               <rdf:li rdf:parseType="Resource">
                  <xmpGImg:width>256</xmpGImg:width>
                  <xmpGImg:height>28</xmpGImg:height>
                  <xmpGImg:format>JPEG</xmpGImg:format>
                  <xmpGImg:image>/9j/4AAQSkZJRgABAgEASABIAAD/7QAsUGhvdG9zaG9wIDMuMAA4QklNA+0AAAAAABAASAAAAAEA&#xA;AQBIAAAAAQAB/+4ADkFkb2JlAGTAAAAAAf/bAIQABgQEBAUEBgUFBgkGBQYJCwgGBggLDAoKCwoK&#xA;DBAMDAwMDAwQDA4PEA8ODBMTFBQTExwbGxscHx8fHx8fHx8fHwEHBwcNDA0YEBAYGhURFRofHx8f&#xA;Hx8fHx8fHx8fHx8fHx8fHx8fHx8fHx8fHx8fHx8fHx8fHx8fHx8fHx8fHx8f/8AAEQgAHAEAAwER&#xA;AAIRAQMRAf/EAaIAAAAHAQEBAQEAAAAAAAAAAAQFAwIGAQAHCAkKCwEAAgIDAQEBAQEAAAAAAAAA&#xA;AQACAwQFBgcICQoLEAACAQMDAgQCBgcDBAIGAnMBAgMRBAAFIRIxQVEGE2EicYEUMpGhBxWxQiPB&#xA;UtHhMxZi8CRygvElQzRTkqKyY3PCNUQnk6OzNhdUZHTD0uIIJoMJChgZhJRFRqS0VtNVKBry4/PE&#xA;1OT0ZXWFlaW1xdXl9WZ2hpamtsbW5vY3R1dnd4eXp7fH1+f3OEhYaHiImKi4yNjo+Ck5SVlpeYmZ&#xA;qbnJ2en5KjpKWmp6ipqqusra6voRAAICAQIDBQUEBQYECAMDbQEAAhEDBCESMUEFURNhIgZxgZEy&#xA;obHwFMHR4SNCFVJicvEzJDRDghaSUyWiY7LCB3PSNeJEgxdUkwgJChgZJjZFGidkdFU38qOzwygp&#xA;0+PzhJSktMTU5PRldYWVpbXF1eX1RlZmdoaWprbG1ub2R1dnd4eXp7fH1+f3OEhYaHiImKi4yNjo&#xA;+DlJWWl5iZmpucnZ6fkqOkpaanqKmqq6ytrq+v/aAAwDAQACEQMRAD8Amf5x+df0jr0Wg2clbHTn&#xA;P1kqdnuSCpH/ADzBp865XIvXdh6Pw4+JL6pcvd+15rqWpCAGKI1mPU/y/wBuB6CUkJp2qNG3pTsS&#xA;hOzncgnx9sURkyry35ruPLXmGz1KGrxLVbqIH+8hcjkv4VHuBiHE7Q0wz4zA/D3vpuzvLa9tIbu1&#xA;kEtvcIskMi9GVhUHLXz+cDEkHmFPVdUsNJ0251PUJhb2VnG01xM3RUQVOw3J8ANzixeQWH5k/m95&#xA;3aa88j6JZ2OgRyMkGoamSXlKGmwDAfMKrUO3LFUVpf5vebfL/mS08vfmXpMOnfXyEsdZtGP1Z22W&#xA;r1ZxSrDkQw413UDFXr+KuxV2KuxV2KvI/wA4fzI/MjyTfQT6bZaZcaLeyJb2ZnWeS5aYpyYMqSxr&#xA;So22xVmn5aedE84+TbDXCqR3UoaO+hjrxjuIzxcAEsQDsygk7EYq81/MP89vNOk+e5PLflizsLm3&#xA;gkt7Ka5u1mcfXJ6njyiljCgfZpQmqtir2Dy2/mF9FtX8xR20WskN9bjs+RgB5njw5lm+xStT1xVM&#xA;sVdirsVY3+YHnmw8l6B+l7yF7n1JktreCMgF5ZASoLGvFaKSTQ4qkf5u+bPPnlXSDrfl+206fS7S&#xA;PlqRvhM0oZpFjj9JY5IwR8e9cVZf5a1KfVPLmlancKqz31nb3MqxghA80SuwUEsaVbapxVMcVef/&#xA;AJu+bPPnlXSDrfl+206fS7SPlqRvhM0oZpFjj9JY5IwR8e9cVYzpvnX/AJyA1Dy5b+YrTRtCu7C4&#xA;gFzHBF9YW4aOnKgVpqcvbFWd/ll59t/PHlWLW47c2swke3urcnkEmjAJ4tQVUqwI29sVZXiqX+YZ&#xA;9bg0S9m0O2ivNXSJjZW07+nG8nYM236xXpUdQqw38xvNX5i+XfJ9rr2nWWm+tbQerr8FyZZVjYhA&#xA;FtzG8XL42YGvtirJfIuu3ev+T9I1q8SOO6v7ZJ5khDLGGYbhQxc0+ZxVPcVfO35qfllq/l6WXWdJ&#xA;ZrrRXYvLVVaW2Zj+2acmTwf7/E1EU9p2T2nDNUJ7ZPsP7fJ5BNcXKyHk9Sd6kDev0Yu2mCCsF1cE&#xA;0Dbn2H9MWLNvIXlDzL5rvlsrKi20NPrd7IimOJCfcbt/Ko64tWt1WLTwue8ug731H5c0K10HRrbS&#xA;rV3khtloJJDVmJNWO2wqT0G2WAU8Hqc5yzMz1YB/zknJdp+Vl2IK+m9zbLdU/wB9+pUV9vUC4Whl&#xA;/wCXMNjD5B8upYU+q/o62ZCtNy0SsxNP2ixJb3xVgH/OUcVk35d28syr9ZTUIRasR8VWSTmAfAqN&#xA;/lirFfzs0S5h8leWPN3168h167GnWNzH6xEI5WskrNwArz9RdzyxS3+aPkPVfI3l6z85weZtSvfN&#xA;MV5Et3dyzH0n9QMSEjHxKvwqOJYgjamKsn/Pzz9qWk3mi+V7HUH0aPVm9TU9XiR3lhtg4T90I6vX&#xA;7RPHfYAHc4oee65qf5caDZjVPy/856o3mq1dHFvcpdul2AQHSUPBGn2d/i22pTwUvpLyvrI1vy5p&#xA;mscPSN/axXDxb/A0iBmTf+VqjFDzb/nIP/pi/wDtuwYqx7QvMNv+VHnHztoF5SPSJYH1vQYmJCM5&#xA;HwwJ/rV9Ov8AxXilitx5durDyd5O1zUqtrPmfzJFqd5K9eZSQkxVr4gmT/Z4q9M/N3W/MupecvLv&#xA;5eaDeyaUdZV7jUNQhPGUQLzqqEFSKJC7EA/FsPmoSDzz+W19+W+gt5v8na/qK3WnPG1/bXkwliuI&#xA;nkWP4lVYwfiYVDVqOlCMVQ3542UeoeT9C/MGzuruz1PVhYRi1Walukc8Dz/YAB5A03r9GKVD80vI&#xA;eqeR/Llp5yh8zane+aYbuJbm7lm/cvzDEhI6VVQVA4liKdsVTf8A5yd8u2kuhab5immmivFuLexe&#xA;3WUfVxGwlkZuPEfGDtyr07YoTr8yfKVh5V/I3zBpVjcXNzADHL6l5IJZavcw1HIBdtvDFWH67+WM&#xA;dh+UkXnH9PapNr9tp9pd2spuCsUSsI6QxxjdVRG4rRvf2xS9v8k391qPkzQNQu39S7vNOtJ7iQ7c&#xA;pJYEd228WOKGN/nz/wCSl8wf8Y4P+omLFXj83mr83fLP5b+XHF7YWvlnVYks7a/gjke4tY3XYzFl&#xA;ADcORBSvQ9DTFL1vQvJOn+SvysudJtfMH6OV0e5ufMYCURpePKSNWJUAoAqfFXuDXFDxXzNN+WWm&#xA;+X31Pyz521a885WxRorp/raLcSBwJfieJVUUZmH7z78UvSvzNsW8x/kvp3mu8u7iHVbPS4L5Pq0g&#xA;ijea7jhMnqKo3HgBSmKEX5pd5P8AnGuN3Yu76Dp7MzGpJMcJJJOKpJrt15ptf+cc9Ak8umdJPRtR&#xA;qMlpX11s+DGRkK/EPiCVI7V7VxVg6WX5b6vPpMfkzzZe6bqhu4jc2euzTRxyoK7iSKN4xLyoAOVD&#xA;XFL6qdEdGR1DIwIZSKgg7EEHFQaeAfm5+STWsc2ueWIS9otZLrTU3aIDq8Q6snivbtt0rIp6rs3t&#xA;jxAMeU+rpLv8iwr8sPyv1Xzje+seVro0Dcbi+I/a68IwftP+A79gRVufrO0YaYXzn0H6S+pdB0HS&#xA;tB0yLTdLgW3tIeijcsx6s7HdmPcnLAKeL1GonlmZzNkphhaUv8w6Dp3mDRLzRtSQyWV9GYpgDRhX&#xA;cMpNaMrAMp8RiryHQvL/AOef5exvougWtn5p8vq7NY+tKkEsKsxPH95JDxqTUqCwr0OKr0/LX8w/&#xA;PvmSz1b8yDb2Gjae3O38v2j8w5FCQxVpFAeg5tzLEbDj2VRf55+W/wAyfNf1XRtE0eC50e1nhvlv&#xA;TcRxymdEkRoysjr8NJOtMVQ/5o6J+bXnLyTpmlfoC2jvJ5HuNVSO5iHoyQyssKoXkoweI8jud8VR&#xA;nmzyL5784aRovmOSG20Lz5oU7y20CyCSB4w4ZEMimTf4ARXbcg9ahVdPrH/ORmpwx2EGg6doM7kC&#xA;bWGuIp0UA7tHCHnI/wBkrYq9TsIruKxt4rycXN2karcXCoIxJIB8ThATxqe1cVeS/nJ5e/M7zFrW&#xA;mw6Jotvc6To91Df2101xFG8kqD4kdXdaLX2xVd+ZX5W615+tPKmoXttHY6zBIkOvQxurCO1lPKXg&#xA;3I8zEy/CAd+RxVZ+cHlb8w9Z1HRbLy3olvNouhywXlrKZ4omMkVR6JR3WiAAdBiqv5x8ieevMln5&#xA;f84WkdvpHn/ReZey5h4JIxIxWL1AXX7PiaHkQSMVSzX9D/PP8wLaHy9r+nWXlvQ3kR9SuoZkmeVY&#xA;2DUVElmNOQ5BTTcCrYqi/wA4vJnnrVdI0nyp5V0eG48v6bHayx3L3Eccqy2wkhWHjI6VUR8TWmKo&#xA;f8zdG/ODzn5LsdJk8vWsN1LM0+oLHdRfujCxEIUvJRg6MSeuKph5/wDKv5h+fPyw+p6jp1tp/mOC&#xA;+W5jsI5laOSKNWQAScnUMRITu3bFUJ51tvzt8y+RP0FceXrL61qAKai8dzEpjEMkbxsnKUqTIVav&#xA;WmKt6tpH5t6j+US+V30C1TUTw0541uYtrKCGP05+Rk4c2kUqVr9GKsx/KqPztaeW4NK80aZDpx0u&#xA;C3s7AwyrMZYoYhGXfgzgH4RiqWfnVpnn7XNAfy95b0qG+stRjpfXMkyRSRNHKkiBA7oDXjviqA8q&#xA;+SvNWsflpd+SPOemQadBb20VtpdxFKkzs6BiJm4M4BjdUPau4xVj1v5H/N/Wfy3u/IuuWlvbQ2lv&#xA;H+i9QNwrtM9vOjx28gRnonpghTxFKLXFVfzBpv5zeYPILeUF8o2WkwJbxQzTm9hk9UQMjKtvHG3G&#xA;IkoPtkimKu1LSPzovfyuh8nt5btFYQR6c7i7i5i3to4hFLUy8eTMjVGKrdT0n867z8srfycfLVmA&#xA;LZdOllF3FzEFtHCIZBWXjycq/Ie2Krz5f/OxPyw0rQ9PtBpWtaRfW8cRtryNTNYxwSBmlcScSPVZ&#xA;apXfwxVBebfJf5o+fhaabqvlLStAK3Cy3mvxywyykAENwEbtLRq14tWppUjrir3zFXYqhdM/Rf1J&#xA;P0X6H1Kr+n9V4elXmefHh8NedeXvXAK6M8nFfqu/NFYWDsVdirsVdirsVdirsVdirsVdirsVdirs&#xA;VdirsVdirsVdirsVdirsVdirsVdirsVdirsVdir/AP/Z</xmpGImg:image>
               </rdf:li>
            </rdf:Alt>
         </xmp:Thumbnails>
         <xmp:MetadataDate>2013-09-12T20:40:10-04:00</xmp:MetadataDate>
         <xmp:ModifyDate>2013-09-12T20:40:10-04:00</xmp:ModifyDate>
      </rdf:Description>
      <rdf:Description rdf:about=""
            xmlns:xmpTPg="http://ns.adobe.com/xap/1.0/t/pg/"
            xmlns:stDim="http://ns.adobe.com/xap/1.0/sType/Dimensions#"
            xmlns:xmpG="http://ns.adobe.com/xap/1.0/g/">
         <xmpTPg:MaxPageSize rdf:parseType="Resource">
            <stDim:w>260.000000</stDim:w>
            <stDim:h>25.000000</stDim:h>
            <stDim:unit>Points</stDim:unit>
         </xmpTPg:MaxPageSize>
         <xmpTPg:NPages>1</xmpTPg:NPages>
         <xmpTPg:HasVisibleTransparency>False</xmpTPg:HasVisibleTransparency>
         <xmpTPg:HasVisibleOverprint>False</xmpTPg:HasVisibleOverprint>
         <xmpTPg:PlateNames>
            <rdf:Seq>
               <rdf:li>Cyan</rdf:li>
               <rdf:li>Magenta</rdf:li>
               <rdf:li>Yellow</rdf:li>
               <rdf:li>Black</rdf:li>
            </rdf:Seq>
         </xmpTPg:PlateNames>
         <xmpTPg:SwatchGroups>
            <rdf:Seq>
               <rdf:li rdf:parseType="Resource">
                  <xmpG:groupName>Default Swatch Group</xmpG:groupName>
                  <xmpG:groupType>0</xmpG:groupType>
               </rdf:li>
            </rdf:Seq>
         </xmpTPg:SwatchGroups>
      </rdf:Description>
      <rdf:Description rdf:about=""
            xmlns:dc="http://purl.org/dc/elements/1.1/">
         <dc:format>image/svg+xml</dc:format>
      </rdf:Description>
      <rdf:Description rdf:about=""
            xmlns:xmpMM="http://ns.adobe.com/xap/1.0/mm/"
            xmlns:stEvt="http://ns.adobe.com/xap/1.0/sType/ResourceEvent#">
         <xmpMM:DerivedFrom rdf:parseType="Resource"/>
         <xmpMM:DocumentID>xmp.did:0380117407206811822AA348D29B82AC</xmpMM:DocumentID>
         <xmpMM:InstanceID>xmp.iid:0380117407206811822AA348D29B82AC</xmpMM:InstanceID>
         <xmpMM:OriginalDocumentID>xmp.did:0380117407206811822AA348D29B82AC</xmpMM:OriginalDocumentID>
         <xmpMM:History>
            <rdf:Seq>
               <rdf:li rdf:parseType="Resource">
                  <stEvt:action>saved</stEvt:action>
                  <stEvt:instanceID>xmp.iid:0380117407206811822AA348D29B82AC</stEvt:instanceID>
                  <stEvt:when>2013-09-12T20:40:10-04:00</stEvt:when>
                  <stEvt:softwareAgent>Adobe Illustrator CS6 (Macintosh)</stEvt:softwareAgent>
                  <stEvt:changed>/</stEvt:changed>
               </rdf:li>
            </rdf:Seq>
         </xmpMM:History>
      </rdf:Description>
   </rdf:RDF>
</x:xmpmeta>
                                                                                                    
                                                                                                    
                                                                                                    
                                                                                                    
                                                                                                    
                                                                                                    
                                                                                                    
                                                                                                    
                                                                                                    
                                                                                                    
                                                                                                    
                                                                                                    
                                                                                                    
                                                                                                    
                                                                                                    
                                                                                                    
                                                                                                    
                                                                                                    
                                                                                                    
                                                                                                    
                           
<?xpacket end="w"?>
	</metadata>
<g>
	<polygon fill="#C2214D" points="18.312,25.5 35.526,10.116 1,10.116 18.312,25.5 	"/>
	<polygon fill="#A41D41" points="18.272,25.5 27.853,10.116 8.688,10.116 18.272,25.5 	"/>
	<polygon fill="#C2385E" points="6.78,0.5 1,10.116 35.526,10.116 29.771,0.5 6.78,0.5 	"/>
	<polygon fill="#B52950" points="18.31,0.5 8.688,10.116 27.931,10.116 18.31,0.5 	"/>
	<polygon fill="#DE4771" points="27.853,10.116 29.771,0.5 18.31,0.5 27.853,10.116 	"/>
	<polygon fill="#DE4771" points="8.674,10.116 6.756,0.5 18.263,0.5 8.674,10.116 	"/>
	<path fill="#333333" d="M47.063,13.004c0,5.35,3.609,9.571,9.571,9.571s9.604-4.238,9.604-9.571c0-5.35-3.642-9.604-9.604-9.604
		C50.689,3.4,47.063,7.622,47.063,13.004L47.063,13.004z M49.916,13.004c0-4.141,2.659-7.428,6.719-7.428
		c4.093,0,6.735,3.287,6.735,7.428c0,4.076-2.643,7.363-6.735,7.363C52.574,20.367,49.916,17.08,49.916,13.004L49.916,13.004z
		 M68.631,22.269h7.074v-1.966h-2.336v-6.896c1.144-1.305,2.481-2.271,3.948-2.271c1.531,0,2.014,1.063,2.014,2.965v6.235h-1.772
		v1.934h6.478v-1.949l-2.336-0.032c0,0,0.048-6.832,0.048-7.074c0-2.545-1.45-4.141-3.819-4.141c-1.595,0-2.9,0.612-4.56,1.901
		c-0.032-0.274-0.064-1.676-0.064-1.676h-4.77v1.934h2.401v9.056h-2.304V22.269L68.631,22.269z M99.028,16.388
		c0-0.097,0-0.193,0-0.274c0-3.754-2.175-7.041-6.445-7.041c-4.061,0-7.138,2.788-7.138,6.719c0,3.755,2.739,6.784,7.203,6.784
		c2.852,0,5.14-1.063,6.381-2.9l-2.062-0.902c-0.983,1.176-2.578,1.788-4.254,1.788c-2.771,0-4.286-1.676-4.625-4.173l5.511,0.032
		L99.028,16.388L99.028,16.388z M88.152,14.744c0.371-2.191,1.869-3.819,4.463-3.819c2.353,0,3.754,1.772,4.093,3.819h-4.222H88.152
		L88.152,14.744z M110.967,20.223h-2.384v2.046h6.687v-2.03h-2.143V5.801l3.319,8.298l3.319,8.33h0.677l3.319-8.33l3.368-8.314
		v14.438h-2.143v2.046h6.896v-2.014h-2.368v-7.283V5.737h2.368V3.69h-6.284l-5.446,13.471l-2.659-6.751l-2.707-6.719h-6.203v1.998
		h2.384v7.283V20.223L110.967,20.223z M140.479,20.367c-2.627,0-4.286-1.949-4.286-4.576c0-2.626,1.659-4.656,4.286-4.656
		c2.658,0,4.318,2.03,4.318,4.656C144.797,18.418,143.137,20.367,140.479,20.367L140.479,20.367z M140.479,22.575
		c4.205,0,6.896-3.062,6.896-6.784c0-3.722-2.675-6.719-6.864-6.719c-4.222,0-6.881,2.997-6.881,6.719
		C133.63,19.514,136.289,22.575,140.479,22.575L140.479,22.575z M149.478,22.269h7.073v-1.966h-2.336v-6.896
		c1.145-1.305,2.481-2.271,3.948-2.271c1.53,0,2.014,1.063,2.014,2.965v6.235h-1.772v1.934h6.478v-1.949l-2.337-0.032
		c0,0,0.049-6.832,0.049-7.074c0-2.545-1.45-4.141-3.818-4.141c-1.596,0-2.9,0.612-4.561,1.901
		c-0.032-0.274-0.064-1.676-0.064-1.676h-4.77v1.934h2.401v9.056h-2.305V22.269L149.478,22.269z M165.969,11.264h1.998v3.561
		c0,0.629,0.081,4.528,0.081,4.528c0.08,2.288,1.386,3.094,3.239,3.094c0.547,0,1.176-0.113,1.74-0.258v-2.047
		c-0.451,0.146-0.887,0.226-1.258,0.226c-0.757,0-1.257-0.306-1.305-1.192c-0.064-0.226-0.064-3.818-0.064-4.479v-3.432h2.627V9.298
		H170.4V4.625l-2.385,1.966v2.707h-2.047V11.264L165.969,11.264z M174.581,22.269h7.187v-1.966h-2.336v-7.879
		c1.272-0.935,2.724-1.466,3.884-1.466c1.676,0,2.095,1.321,2.095,2.803v6.559h-1.645v1.949h6.35v-1.949l-2.321-0.032
		c0,0,0.016-6.768,0.016-6.978c0-2.771-1.4-4.237-3.963-4.237c-1.562,0-2.998,0.483-4.415,1.499c0-0.483,0.017-6.88,0.017-6.88
		h-4.834v1.95h2.417v7.332v7.315h-2.45V22.269L174.581,22.269z M198.815,22.269h7.718v-2.03l-2.514-0.016c0,0,0-6.188,0-6.623h3.11
		l4.561,8.669h4.075v-2.014h-2.352l-3.771-6.978c2.757-0.563,4.175-2.288,4.175-4.785c0-2.868-1.87-4.802-6.123-4.802
		c-0.484,0-8.879,0-8.879,0v1.998h2.627v7.283v7.251h-2.627V22.269L198.815,22.269z M204.02,11.521V5.737
		c0,0,3.238-0.016,3.803-0.016c2.03,0,3.336,0.951,3.336,2.771c0,1.499-0.741,3.029-3.545,3.029H204.02L204.02,11.521z
		 M221.333,22.623c1.611,0,2.836-0.451,4.544-1.691c0.016,0,0.032,1.337,0.032,1.337h4.464v-1.949h-2.321v-6.978
		c0-2.207-1.176-4.27-5.235-4.27c-2.659,0-4.577,0.935-5.561,2.626l2.256,0.628c0.613-0.886,1.66-1.354,2.981-1.354
		c1.708,0,3.158,0.677,3.158,2.481v1.562c-1.048-0.209-2.11-0.322-3.109-0.322c-3.062,0-5.592,0.887-5.592,4.093
		C216.95,20.771,218.61,22.623,221.333,22.623L221.333,22.623z M225.651,19.4c-0.982,0.887-2.562,1.435-3.979,1.435
		c-1.58,0-2.45-0.919-2.45-2.047c0-2.11,1.789-2.449,3.481-2.449c1.16,0,2.256,0.242,2.948,0.258V19.4L225.651,19.4z
		 M231.669,22.269h6.768v-1.966h-2.19V9.298h-4.577v1.934h2.176v9.039h-2.176V22.269L231.669,22.269z M233.555,5.092
		c0,0.79,0.645,1.402,1.467,1.402c0.821,0,1.481-0.612,1.481-1.402s-0.66-1.402-1.481-1.402
		C234.199,3.69,233.555,4.303,233.555,5.092L233.555,5.092z M239.589,22.269h6.993v-1.966h-2.143V3.69h-4.803v1.95h2.401v7.284
		v7.363h-2.449V22.269L239.589,22.269z M248.668,22.269h2.111l0.031-0.645c0.968,0.661,2.111,0.951,3.595,0.951
		c3.142,0,5.14-1.611,5.14-3.98c0-2.626-2.014-3.496-4.398-3.899c-2.272-0.37-4.238-0.531-4.238-1.965
		c0-1.096,1.031-1.773,2.609-1.773c1.402,0,2.45,0.467,3.207,1.386c0,0.177,0.049,1.08,0.049,1.08h2.03V9.298h-2.03
		c0,0-0.064,0.467-0.08,0.451c-0.838-0.403-2.015-0.677-3.271-0.677c-2.901,0-4.786,1.611-4.786,3.754
		c0,3.094,3.255,3.803,5.575,4.109c1.708,0.226,2.868,0.499,2.868,1.837c0,1.192-1.095,1.885-2.948,1.885
		c-1.998,0-3.399-0.918-3.399-2.417c0-0.08,0-0.145,0.016-0.209h-2.079V22.269L248.668,22.269z"/>
</g>
</svg>
